<svg xmlns="http://www.w3.org/2000/svg" viewBox="0 0 500 500"><g id="freepik--Floor--inject-34"><ellipse id="freepik--floor--inject-34" cx="250" cy="350.83" rx="235.96" ry="140.37" style="fill:#fafafa"></ellipse></g><g id="freepik--Pictures--inject-34"><g id="freepik--Picture--inject-34"><g id="freepik--Frame--inject-34"><polygon points="111.65 174.03 113.94 175.39 160.89 148.29 158.6 146.92 111.65 174.03" style="fill:#fafafa"></polygon><polygon points="158.6 146.92 113.94 172.7 113.94 51.73 158.6 25.96 158.6 146.92" style="fill:#fff"></polygon><path d="M165.21,17.14,109.62,49.23V182.87l55.59-32.09Zm-4.32,131.15-46.95,27.1V51.73l46.95-27.11Z" style="fill:#f0f0f0"></path><polygon points="160.89 148.29 158.6 146.92 158.6 25.96 160.89 24.62 160.89 148.29" style="fill:#e0e0e0"></polygon><polygon points="165.21 17.14 162.88 15.81 107.3 47.9 109.62 49.23 165.21 17.14" style="fill:#fafafa"></polygon><polygon points="107.3 47.9 109.62 49.23 109.62 182.87 107.3 181.54 107.3 47.9" style="fill:#e0e0e0"></polygon></g><g id="freepik--Land--inject-34"><polygon points="155.25 144.25 117.29 166.16 117.29 55.76 155.25 33.85 155.25 144.25" style="fill:#f0f0f0"></polygon></g><g id="freepik--land--inject-34"><polygon points="155.25 144.25 117.29 166.16 117.29 55.76 155.25 33.85 155.25 144.25" style="fill:#f0f0f0"></polygon></g><path d="M117.29,129.35a36.45,36.45,0,0,0,5.43,0,68.41,68.41,0,0,0,18.48-4c4.6-1.69,9.19-3.89,14.05-4v23l-5.14,3a17.31,17.31,0,0,0-7.05-3.92c-7.31-1.92-14.81,1.76-22.33,2.62a30.36,30.36,0,0,1-3.44.17Z" style="fill:#fafafa"></path><path d="M117.29,101.86c8.49-2.51,17.21-4.61,23.27-10.84,4.88-5,7.18-12,8.79-18.8s2.71-13.86,5.8-20.15l.1-.18v50.77c-.47.71-.95,1.42-1.46,2.11-5.57,7.56-13.79,13.87-23.17,14.36-4.41.23-9-.81-13.33-.79Z" style="fill:#fafafa"></path><path d="M117.29,76.6a25.89,25.89,0,0,0,8.41-23.55c-.12-.64-.27-1.27-.43-1.89l14.61-8.44c-.06,1-.11,1.93-.13,2.88-.16,5.58,0,11.22-1.2,16.67a32.76,32.76,0,0,1-16.64,21.5,31.72,31.72,0,0,1-4.62,1.93Z" style="fill:#fafafa"></path></g><g id="freepik--picture--inject-34"><g id="freepik--frame--inject-34"><polygon points="33.34 233.36 35.63 234.72 82.57 207.62 80.28 206.25 33.34 233.36" style="fill:#fafafa"></polygon><polygon points="80.28 206.25 35.63 232.03 35.63 111.06 80.29 85.29 80.28 206.25" style="fill:#fff"></polygon><path d="M86.89,76.47,31.31,108.56V242.2l55.58-32.09ZM82.57,207.62l-46.95,27.1V111.06L82.57,84Z" style="fill:#f0f0f0"></path><polygon points="82.57 207.62 80.28 206.25 80.29 85.29 82.57 83.95 82.57 207.62" style="fill:#e0e0e0"></polygon><polygon points="86.89 76.47 84.57 75.14 28.98 107.23 31.31 108.56 86.89 76.47" style="fill:#fafafa"></polygon><polygon points="28.98 107.23 31.31 108.56 31.31 242.2 28.98 240.87 28.98 107.23" style="fill:#e0e0e0"></polygon></g><g id="freepik--land--inject-34"><polygon points="76.94 203.58 38.98 225.5 38.98 115.09 76.94 93.18 76.94 203.58" style="fill:#f0f0f0"></polygon></g><g id="freepik--land--inject-34"><polygon points="76.94 203.58 38.98 225.5 38.98 115.09 76.94 93.18 76.94 203.58" style="fill:#f0f0f0"></polygon></g><path d="M39,188.68a36.33,36.33,0,0,0,5.42,0,68.54,68.54,0,0,0,18.49-4c4.59-1.7,9.18-3.9,14-4v23l-5.14,3a17.38,17.38,0,0,0-7-3.92c-7.32-1.92-14.82,1.76-22.33,2.62a30.59,30.59,0,0,1-3.44.17Z" style="fill:#fafafa"></path><path d="M39,161.19c8.49-2.51,17.2-4.6,23.26-10.84,4.89-5,7.19-12,8.8-18.8s2.71-13.86,5.8-20.15a1.62,1.62,0,0,1,.1-.18V162c-.48.71-1,1.42-1.46,2.11C69.9,171.66,61.68,178,52.3,178.46c-4.4.23-9-.81-13.32-.79Z" style="fill:#fafafa"></path><path d="M39,135.93a25.91,25.91,0,0,0,8.41-23.55c-.12-.64-.27-1.27-.43-1.89l14.6-8.43c-.06,1-.1,1.92-.13,2.87-.15,5.58,0,11.23-1.2,16.67a32.73,32.73,0,0,1-16.64,21.5A31,31,0,0,1,39,145Z" style="fill:#fafafa"></path></g></g><g id="freepik--Carpet--inject-34"><g id="freepik--carpet--inject-34"><path id="freepik--Shadow--inject-34" d="M65.53,310.15C114.4,281.93,206,289.07,270.11,326.08L285,334.41c64.12,37,76.48,89.9,27.6,118.12S172.13,473.61,108,436.59l-14.87-8.32C29,391.26,16.65,338.37,65.53,310.15Z" style="fill:#e0e0e0"></path><path d="M43.42,351.15c0,23,20.19,48.38,54,67.9l14.41,8.35c35.17,20.29,79.81,31.94,122.53,31.94,29.61,0,55-5.64,73.44-16.29,17.6-10.15,26.89-23.83,26.89-39.55,0-23-20.19-48.38-54-67.89l-14.43-8.35c-35.15-20.29-79.81-31.94-122.53-31.94-29.59,0-55,5.64-73.43,16.29C52.71,321.76,43.42,335.44,43.42,351.15Z" style="fill:#BA68C8"></path><path d="M234.36,459.33c29.59,0,55-5.63,73.44-16.28,17.58-10.15,26.88-23.83,26.88-39.55,0-23-20.18-48.38-54-67.89l-14.42-8.35c-35.15-20.3-79.82-31.94-122.53-31.94-29.6,0-55,5.63-73.44,16.28-17.59,10.16-26.88,23.83-26.88,39.56,0,23,20.18,48.37,54,67.89l14.42,8.35c35.15,20.29,79.81,31.93,122.52,31.93Z" style="fill:#BA68C8"></path><path d="M43.42,351.15c0,23,20.19,48.38,54,67.9l14.41,8.35c35.17,20.29,79.81,31.94,122.53,31.94,29.61,0,55-5.64,73.44-16.29,17.6-10.15,26.89-23.83,26.89-39.55,0-23-20.19-48.38-54-67.89l-14.43-8.35c-35.15-20.29-79.81-31.94-122.53-31.94-29.59,0-55,5.64-73.43,16.29C52.71,321.76,43.42,335.44,43.42,351.15Z" style="fill:#fff;opacity:0.85"></path><path d="M127.66,416,119.15,411C92.77,395.8,77,375.93,77,357.86c0-12.45,7.32-23.27,21.18-31.27,14.38-8.3,34.14-12.69,57.15-12.69,33.15,0,67.81,9,95.09,24.79l8.51,4.93c26.38,15.23,42.13,35.11,42.13,53.17,0,12.46-7.32,23.27-21.18,31.27-14.38,8.31-34.15,12.7-57.16,12.7h0C189.59,440.76,154.94,431.72,127.66,416Zm151.41,10.67c13.32-7.69,20.36-18,20.36-29.85,0-17.47-15.44-36.81-41.3-51.75l-8.51-4.93c-27-15.61-61.4-24.57-94.27-24.57-22.72,0-42.2,4.32-56.33,12.48-13.32,7.69-20.36,18-20.36,29.84,0,17.47,15.44,36.82,41.31,51.75l8.51,4.94c27,15.61,61.39,24.56,94.25,24.56h0C245.47,439.11,264.94,434.8,279.07,426.64Z" style="fill:#fff"></path><path d="M215.16,427.28c18.48,0,34.34-3.52,45.86-10.17,11-6.34,16.78-14.88,16.78-24.69,0-14.36-12.6-30.21-33.71-42.39l-4.65-2.71c-21.95-12.68-49.84-19.94-76.51-19.94-18.48,0-34.33,3.51-45.85,10.16-11,6.34-16.79,14.88-16.79,24.7,0,14.35,12.61,30.2,33.72,42.39l4.65,2.71c22,12.67,49.83,19.94,76.5,19.94Z" style="fill:#BA68C8;opacity:0.2"></path><path d="M207.59,414.62c14.09,0,26.18-2.68,35-7.75,8.37-4.83,12.8-11.34,12.8-18.83,0-10.94-9.61-23-25.71-32.32l-.8-.49c-16.73-9.66-38-15.2-58.33-15.2-14.09,0-26.18,2.68-35,7.75-8.38,4.84-12.8,11.35-12.8,18.83,0,10.95,9.61,23,25.7,32.32l.8.49c16.74,9.66,38,15.2,58.33,15.2Z" style="fill:#fff;opacity:0.4"></path><path d="M94.94,423.33l14.41,8.35c63,36.35,152.93,43.36,200.91,15.65s35.86-79.65-27.1-116L268.73,323c-63-36.35-152.91-43.36-200.89-15.65S32,387,94.94,423.33ZM43.42,351.15c0-15.71,9.29-29.39,26.88-39.54,18.45-10.65,43.84-16.29,73.43-16.29,42.72,0,87.38,11.65,122.53,31.94l14.43,8.35c33.8,19.51,54,44.89,54,67.89,0,15.72-9.29,29.4-26.89,39.55-18.44,10.65-43.83,16.29-73.44,16.29-42.72,0-87.36-11.65-122.53-31.94l-14.41-8.35C63.61,399.53,43.42,374.16,43.42,351.15Z" style="fill:#BA68C8"></path><path d="M94.94,423.33l14.41,8.35c63,36.35,152.93,43.36,200.91,15.65s35.86-79.65-27.1-116L268.73,323c-63-36.35-152.91-43.36-200.89-15.65S32,387,94.94,423.33ZM43.42,351.15c0-15.71,9.29-29.39,26.88-39.54,18.45-10.65,43.84-16.29,73.43-16.29,42.72,0,87.38,11.65,122.53,31.94l14.43,8.35c33.8,19.51,54,44.89,54,67.89,0,15.72-9.29,29.4-26.89,39.55-18.44,10.65-43.83,16.29-73.44,16.29-42.72,0-87.36-11.65-122.53-31.94l-14.41-8.35C63.61,399.53,43.42,374.16,43.42,351.15Z" style="fill:#fff;opacity:0.7000000000000001"></path></g></g><g id="freepik--Window--inject-34"><g id="freepik--window--inject-34"><g id="freepik--window--inject-34"><polygon points="365.45 147.18 466.38 205.45 466.38 84.8 365.45 26.55 365.45 147.18" style="fill:#fff"></polygon><polygon points="468.8 206.85 466.38 208.29 363.03 148.63 365.45 147.18 468.8 206.85" style="fill:#fafafa"></polygon><path d="M358.46,151.26,471,216.2v-134L358.46,17.22ZM363,25.13,466.38,84.8V208.29L363,148.62Z" style="fill:#f0f0f0"></path><polygon points="363.03 148.63 365.45 147.18 365.45 26.55 363.03 25.13 363.03 148.63" style="fill:#e0e0e0"></polygon><polygon points="358.46 17.22 360.92 15.81 473.4 80.76 470.95 82.16 358.46 17.22" style="fill:#fafafa"></polygon><polygon points="473.4 80.76 470.95 82.16 470.95 216.2 473.4 214.8 473.4 80.76" style="fill:#e0e0e0"></polygon><polygon points="464.37 163.53 464.37 166.37 363.03 107.77 365.45 106.33 464.37 163.53" style="fill:#fafafa"></polygon><polygon points="418.6 57.23 416.14 55.81 416.14 179.31 418.6 177.9 418.6 57.23" style="fill:#e0e0e0"></polygon><polygon points="411.57 53.18 416.14 55.81 416.14 179.31 411.57 176.66 411.57 53.18" style="fill:#f0f0f0"></polygon><polygon points="363.03 107.77 363.03 113.04 466.43 173.01 466.43 167.74 363.03 107.77" style="fill:#f0f0f0"></polygon><polygon points="416.14 138.57 418.6 137.06 466.38 164.69 466.38 167.74 416.14 138.57" style="fill:#fafafa"></polygon></g></g></g><g id="freepik--Furniture--inject-34"><g id="freepik--Drawer--inject-34"><path id="freepik--shadow--inject-34" d="M425.29,398.51,478,368.11a1.36,1.36,0,0,0,0-2.57L347.67,290a4.92,4.92,0,0,0-4.44,0L290.48,320.4c-1.23.7-1.23,1.85,0,2.57l130.37,75.54A4.89,4.89,0,0,0,425.29,398.51Z" style="fill:#e6e6e6"></path><g id="freepik--drawer--inject-34"><polygon points="414.13 369.11 418.66 391.58 423.06 394.12 427.43 391.6 431.99 369.11 423.06 363.95 414.13 369.11" style="fill:#e0e0e0"></polygon><polygon points="414.13 369.11 418.66 391.58 423.06 394.12 427.43 391.6 431.99 369.11 423.06 363.95 414.13 369.11" style="opacity:0.05"></polygon><polygon points="423.06 394.12 423.06 374.26 414.13 369.11 418.66 391.58 423.06 394.12" style="fill:#ebebeb"></polygon><polygon points="414.13 369.11 417.05 383.62 423.06 387.09 429.04 383.63 431.99 369.11 423.06 363.95 414.13 369.11" style="opacity:0.05"></polygon><polygon points="453.41 346.43 457.94 368.9 462.35 371.44 466.71 368.92 471.28 346.43 462.34 341.27 453.41 346.43" style="fill:#e0e0e0"></polygon><polygon points="453.41 346.43 457.94 368.9 462.35 371.44 466.71 368.92 471.28 346.43 462.34 341.27 453.41 346.43" style="opacity:0.05"></polygon><polygon points="462.35 371.44 462.35 351.58 453.41 346.43 457.94 368.9 462.35 371.44" style="fill:#ebebeb"></polygon><polygon points="453.41 346.43 456.34 360.94 462.35 364.41 468.33 360.95 471.28 346.43 462.34 341.27 453.41 346.43" style="opacity:0.05"></polygon><polygon points="297.92 302.01 302.45 324.49 306.85 327.03 311.22 324.51 315.79 302.01 306.85 296.85 297.92 302.01" style="opacity:0.05"></polygon><polygon points="306.85 327.03 306.85 307.17 297.92 302.01 302.45 324.49 306.85 327.03" style="fill:#ebebeb"></polygon><polygon points="297.92 302.01 300.84 316.52 306.85 319.99 312.83 316.54 315.79 302.01 306.85 296.85 297.92 302.01" style="opacity:0.05"></polygon><g id="freepik--Cabinet--inject-34"><g id="freepik--cabinet--inject-34"><polygon points="423.06 383.46 471.75 355.35 471.75 249.98 423.06 278.09 423.06 383.46" style="fill:#e0e0e0"></polygon><polygon points="423.06 278.09 295.39 204.38 295.38 309.75 423.06 383.46 423.06 278.09" style="fill:#ebebeb"></polygon><polygon points="295.39 204.38 423.06 278.09 471.75 249.98 344.07 176.27 295.39 204.38" style="fill:#f5f5f5"></polygon><polygon points="416.11 330.29 302.34 264.61 302.34 303.28 301.06 304.02 414.83 369.7 416.11 368.96 416.11 330.29" style="fill:#e0e0e0"></polygon><polygon points="414.83 331.03 301.06 265.35 301.06 304.02 414.83 369.7 414.83 331.03" style="fill:#f5f5f5"></polygon><path d="M360.13,306.76l-9.46-5.46c-1.23-.71-2.22-.39-2.22.72a4.44,4.44,0,0,0,2.22,3.29l9.46,5.46c1.23.71,2.23.39,2.23-.72A4.45,4.45,0,0,0,360.13,306.76Z" style="fill:#e0e0e0"></path><polygon points="416.11 283.6 302.34 217.91 302.34 256.58 301.06 257.32 414.83 323 416.11 322.27 416.11 283.6" style="fill:#e0e0e0"></polygon><polygon points="414.83 284.33 301.06 218.65 301.06 257.32 414.83 323 414.83 284.33" style="fill:#f5f5f5"></polygon><path d="M360.13,260.07l-9.46-5.47c-1.23-.71-2.22-.38-2.22.73a4.46,4.46,0,0,0,2.22,3.29l9.47,5.46c1.22.71,2.22.39,2.22-.72A4.44,4.44,0,0,0,360.13,260.07Z" style="fill:#e0e0e0"></path></g></g></g><g id="freepik--Pot--inject-34"><path d="M327.07,194.12c-5.9,3.41-5.9,8.94,0,12.34s15.47,3.41,21.37,0,5.9-8.93,0-12.34S333,190.72,327.07,194.12Z" style="fill:#e0e0e0"></path><path d="M347.16,201.06c5.14-5.25,8.15-18.34,3.14-22.5H324.79c-5,4.15-2,17.24,3.14,22.49l.15.14.17.18c.15.14.3.28.47.41l.12.1.39.29a6,6,0,0,0,.66.42,16.86,16.86,0,0,0,15.31,0h0a6.79,6.79,0,0,0,.67-.42,3.44,3.44,0,0,0,.36-.28l.15-.12.45-.39.21-.2Z" style="fill:#ebebeb"></path><path d="M327,176.88c-5.82,3.36-5.82,8.81,0,12.17s15.26,3.36,21.08,0,5.82-8.81,0-12.17S332.83,173.52,327,176.88Z" style="fill:#fafafa"></path><path d="M331.14,179.26c-3.55,2.05-3.55,5.36,0,7.41a14.19,14.19,0,0,0,12.82,0c3.54-2,3.54-5.36,0-7.41A14.19,14.19,0,0,0,331.14,179.26Z" style="fill:#f5f5f5"></path><path d="M344,182.78a14.13,14.13,0,0,0-12.82,0,5.8,5.8,0,0,0-2.13,1.94,5.91,5.91,0,0,0,2.13,1.95,14.19,14.19,0,0,0,12.82,0,6,6,0,0,0,2.12-1.95A5.85,5.85,0,0,0,344,182.78Z" style="fill:#ebebeb"></path><path d="M331.92,184.72a29.09,29.09,0,0,1-4.64-6.16c-2.14-3.79-2.54-8.87-1.43-9.49s5.61,4.43,5.61,4.43A27.49,27.49,0,0,1,331,167c.19-3.37,1-6.44,2-7.06s3.12,3.64,4,6.72,1.48,5.62,1.48,5.62a47.52,47.52,0,0,1,1.66-7.1c1.13-3.2,2.15-3.92,2.94-3.6s1.31,1.81,1.54,6.07a42.54,42.54,0,0,1-.19,6.1s1.59-1.74,3.35-3.44c1.94-1.86,2.77-2.12,3.32-1.76s.71,3.25-2.29,8.68a30.53,30.53,0,0,1-5.66,7.45S339,187.4,331.92,184.72Z" style="fill:#e0e0e0"></path></g><g id="freepik--picture--inject-34"><polygon id="freepik--shadow--inject-34" points="463.01 250.86 437.87 265.37 399.94 243.47 425.07 228.96 463.01 250.86" style="fill:#e0e0e0"></polygon><g id="freepik--frame--inject-34"><polygon points="437.4 255.94 435.5 256.86 409.83 242 411.73 241.08 437.4 255.94" style="fill:#fafafa"></polygon><polygon points="411.73 241.08 435.69 254.95 439.47 216.3 415.52 202.44 411.73 241.08" style="fill:#fff"></polygon><path d="M406.26,243.66l32.13,18.59,4.66-47.62-32.13-18.58Zm7.55-42.22,25.66,14.86-4,40.56L409.83,242Z" style="fill:#f0f0f0"></path><polygon points="409.83 242 411.73 241.08 415.52 202.44 413.81 201.44 409.83 242" style="fill:#e0e0e0"></polygon><polygon points="410.92 196.05 412.84 195.16 444.97 213.75 443.05 214.63 410.92 196.05" style="fill:#fafafa"></polygon><polygon points="444.97 213.75 443.05 214.63 438.38 262.25 440.31 261.36 444.97 213.75" style="fill:#e0e0e0"></polygon></g><g id="freepik--land--inject-34"><polygon points="413.2 240.13 434.55 252.5 435.37 244.08 433.01 227.53 428.49 232.34 428.58 237.91 423.06 213.13 414.94 222.19 413.2 240.13" style="fill:#f0f0f0"></polygon><path d="M432.18,216.87a4.35,4.35,0,0,1,2,3.81c-.14,1.37-1.27,1.9-2.52,1.17a4.32,4.32,0,0,1-2-3.8C429.8,216.67,430.92,216.15,432.18,216.87Z" style="fill:#f0f0f0"></path></g></g></g></g><g id="freepik--Device--inject-34"><g id="freepik--Speaker--inject-34"><path d="M366.46,215.43c-7.47,4.31-7.47,11.31,0,15.62s19.59,4.32,27.06,0,7.47-11.31,0-15.62S373.93,211.12,366.46,215.43Z" style="fill:#e0e0e0"></path><g id="freepik--speaker--inject-34"><path d="M364.16,214.69c0-2.35,1.57-4.71,4.68-6.5,6.24-3.61,16.35-3.61,22.59,0,3.11,1.79,4.67,4.15,4.68,6.5h0v7h0c0,2.36-1.56,4.73-4.68,6.53-6.24,3.6-16.35,3.6-22.59,0-3.12-1.8-4.68-4.17-4.68-6.53h0v-7Z" style="fill:#BA68C8"></path><path d="M364.16,214.69c0-2.35,1.57-4.71,4.68-6.5,6.24-3.61,16.35-3.61,22.59,0,3.11,1.79,4.67,4.15,4.68,6.5h0v7h0c0,2.36-1.56,4.73-4.68,6.53-6.24,3.6-16.35,3.6-22.59,0-3.12-1.8-4.68-4.17-4.68-6.53h0v-7Z" style="fill:#BA68C8"></path><path d="M364.16,214.69c0-2.35,1.57-4.71,4.68-6.5,6.24-3.61,16.35-3.61,22.59,0,3.11,1.79,4.67,4.15,4.68,6.5h0v7h0c0,2.36-1.56,4.73-4.68,6.53-6.24,3.6-16.35,3.6-22.59,0-3.12-1.8-4.68-4.17-4.68-6.53h0v-7Z" style="fill:#fff;opacity:0.2"></path><ellipse cx="380.13" cy="214.71" rx="15.98" ry="9.22" style="fill:#BA68C8"></ellipse><ellipse cx="380.13" cy="214.71" rx="15.98" ry="9.22" style="opacity:0.15"></ellipse><path d="M368.59,228.09l.25.15c6.23,3.6,16.35,3.6,22.59,0a10.13,10.13,0,0,0,3.9-3.69v-7a10.24,10.24,0,0,1-3.9,3.67l-.55.3v0a8.65,8.65,0,0,1-6.37,7.49A25.68,25.68,0,0,1,368.59,228.09Z" style="fill:#BA68C8;opacity:0.4"></path><path d="M393.3,219.93a8.65,8.65,0,0,0,2-2.37v7a8.71,8.71,0,0,1-2,2.39Z" style="opacity:0.1"></path><path d="M366.72,207.67c0-1.49,1.24-3.06,3.4-4.3a22.43,22.43,0,0,1,20,0c2.15,1.24,3.39,2.81,3.39,4.3v7h0c0,1.48-1.24,3-3.39,4.3a22.52,22.52,0,0,1-20,0c-2.16-1.25-3.4-2.82-3.4-4.3v-7Z" style="fill:#263238"></path><path d="M366.72,207.67v7c0,1.48,1.24,3,3.4,4.3a22.52,22.52,0,0,0,20,0c2.15-1.25,3.39-2.82,3.39-4.3v-7c0,1.48-1.24,3.05-3.39,4.3a22.52,22.52,0,0,1-20,0C368,210.72,366.72,209.15,366.72,207.67Zm26.48,7.86a3.86,3.86,0,0,0,.2-.41,3.07,3.07,0,0,1-.2.7Zm0-.78c.08-.14.14-.28.2-.41a3.07,3.07,0,0,1-.2.7Zm0-.79a3.73,3.73,0,0,0,.2-.4,3.22,3.22,0,0,1-.2.7Zm0-.78a3.11,3.11,0,0,0,.2-.41,3.15,3.15,0,0,1-.2.71Zm0-.78a3.86,3.86,0,0,0,.2-.41,3.07,3.07,0,0,1-.2.7Zm0-.78a3.86,3.86,0,0,0,.2-.41,3.07,3.07,0,0,1-.2.7Zm0-.79a3.73,3.73,0,0,0,.2-.4,3.07,3.07,0,0,1-.2.7Zm0-.78a3.11,3.11,0,0,0,.2-.41,3.15,3.15,0,0,1-.2.71Zm0-.78a3.86,3.86,0,0,0,.2-.41,3.15,3.15,0,0,1-.2.71Zm-1.28,7.82a6.59,6.59,0,0,0,1.07-1.21v.38a5.8,5.8,0,0,1-1.07,1.32Zm0-.78A6.94,6.94,0,0,0,393,215.1v.38a6,6,0,0,1-1.07,1.32Zm0-.78a6.94,6.94,0,0,0,1.07-1.21v.37a5.84,5.84,0,0,1-1.07,1.33Zm0-.78a6.94,6.94,0,0,0,1.07-1.21v.37a6.07,6.07,0,0,1-1.07,1.33Zm0-.79a6.59,6.59,0,0,0,1.07-1.21v.38a6.07,6.07,0,0,1-1.07,1.33Zm0-.78A6.94,6.94,0,0,0,393,212v.38a6,6,0,0,1-1.07,1.32Zm0-.78a6.94,6.94,0,0,0,1.07-1.21v.38a6,6,0,0,1-1.07,1.32Zm0-.78a6.94,6.94,0,0,0,1.07-1.21v.37a6.07,6.07,0,0,1-1.07,1.33Zm0-.79a6.59,6.59,0,0,0,1.07-1.21V210a6.07,6.07,0,0,1-1.07,1.33ZM390,218.42l.19-.1a11.25,11.25,0,0,0,1.5-1v.5a9.32,9.32,0,0,1-1.61,1.13L390,219Zm0-.78.19-.11a10.36,10.36,0,0,0,1.5-1v.5a9.89,9.89,0,0,1-1.61,1.13l-.08.05Zm0-.78.19-.11a9.65,9.65,0,0,0,1.5-1v.5a9.92,9.92,0,0,1-1.61,1.14l-.08.05Zm0-.78.19-.11a11.25,11.25,0,0,0,1.5-1v.5a9.92,9.92,0,0,1-1.61,1.14l-.08,0Zm0-.79.19-.1a11.25,11.25,0,0,0,1.5-1v.5a9.32,9.32,0,0,1-1.61,1.13l-.08.05Zm0-.78.19-.1a11.25,11.25,0,0,0,1.5-1v.5a9.89,9.89,0,0,1-1.61,1.13l-.08.05Zm0-.78.19-.11a9.65,9.65,0,0,0,1.5-1v.5a9.92,9.92,0,0,1-1.61,1.14l-.08.05Zm0-.78.19-.11a10.39,10.39,0,0,0,1.5-1v.5a9.92,9.92,0,0,1-1.61,1.14l-.08,0Zm0-.79.19-.1a11.25,11.25,0,0,0,1.5-1v.5a9.92,9.92,0,0,1-1.61,1.14l-.08,0Zm-1.66,7.05c.51-.21,1-.43,1.44-.67v.54c-.45.24-.93.47-1.44.68Zm0-.79a13.64,13.64,0,0,0,1.44-.66v.54c-.45.24-.93.47-1.44.68Zm0-.78a13.64,13.64,0,0,0,1.44-.66v.53a11.94,11.94,0,0,1-1.44.68Zm0-.78a13.66,13.66,0,0,0,1.44-.67v.54a13.69,13.69,0,0,1-1.44.68Zm0-.78c.51-.21,1-.43,1.44-.67V216c-.45.24-.93.47-1.44.68Zm0-.79a13.64,13.64,0,0,0,1.44-.66v.54c-.45.24-.93.47-1.44.68Zm0-.78a13.64,13.64,0,0,0,1.44-.66v.53a11.94,11.94,0,0,1-1.44.68Zm0-.78a13.66,13.66,0,0,0,1.44-.67v.54a13.69,13.69,0,0,1-1.44.68Zm0-.78c.51-.21,1-.43,1.44-.67v.54a13.69,13.69,0,0,1-1.44.68Zm-1.84,6.88c.56-.16,1.11-.34,1.63-.54v.55a16.41,16.41,0,0,1-1.63.55Zm0-.78c.56-.16,1.11-.34,1.63-.54v.55a16.41,16.41,0,0,1-1.63.55Zm0-.78c.56-.16,1.11-.34,1.63-.54v.55c-.52.2-1.07.39-1.63.55Zm0-.78a16.41,16.41,0,0,0,1.63-.55v.56c-.52.2-1.07.38-1.63.55Zm0-.79c.56-.16,1.11-.34,1.63-.54v.55a16.41,16.41,0,0,1-1.63.55Zm0-.78c.56-.16,1.11-.34,1.63-.54v.55a16.41,16.41,0,0,1-1.63.55Zm0-.78c.56-.16,1.11-.34,1.63-.54v.55c-.52.2-1.07.39-1.63.55Zm0-.78c.56-.16,1.11-.34,1.63-.54v.55c-.52.2-1.07.38-1.63.55Zm0-.79c.56-.16,1.11-.34,1.63-.54v.55a16.41,16.41,0,0,1-1.63.55Zm-2,6.72c.61-.11,1.21-.24,1.78-.4v.56c-.57.16-1.17.3-1.78.41Zm0-.78c.61-.11,1.21-.24,1.78-.4v.56c-.57.16-1.17.29-1.78.41Zm0-.78c.61-.11,1.21-.24,1.78-.4v.56c-.57.16-1.17.29-1.78.41Zm0-.78c.61-.11,1.21-.25,1.78-.4v.56c-.57.15-1.17.29-1.78.4Zm0-.78c.61-.12,1.21-.25,1.78-.41v.56c-.57.16-1.17.3-1.78.41Zm0-.79c.61-.11,1.21-.24,1.78-.4v.56c-.57.16-1.17.3-1.78.41Zm0-.78c.61-.11,1.21-.24,1.78-.4v.56c-.57.16-1.17.29-1.78.41Zm0-.78c.61-.11,1.21-.25,1.78-.4V215c-.57.16-1.17.29-1.78.4Zm0-.78c.61-.12,1.21-.25,1.78-.4v.56c-.57.15-1.17.29-1.78.4Zm-2.1,6.54q1-.09,1.89-.24v.56c-.62.11-1.25.19-1.89.25Zm0-.78c.64-.06,1.27-.14,1.89-.25v.57c-.62.11-1.25.19-1.89.25Zm0-.78c.64-.06,1.27-.14,1.89-.25v.57c-.62.1-1.25.19-1.89.25Zm0-.78c.64-.06,1.27-.15,1.89-.25v.56c-.62.11-1.25.19-1.89.25Zm0-.79q1-.09,1.89-.24v.56c-.62.11-1.25.19-1.89.25Zm0-.78c.64-.06,1.27-.14,1.89-.25V217c-.62.11-1.25.19-1.89.25Zm0-.78c.64-.06,1.27-.14,1.89-.25v.57c-.62.1-1.25.19-1.89.25Zm0-.78c.64-.06,1.27-.14,1.89-.25v.56c-.62.11-1.25.19-1.89.25Zm0-.79c.64,0,1.27-.14,1.89-.24v.56c-.62.11-1.25.19-1.89.25Zm-2.17,6.37c.66,0,1.31,0,2-.09v.57c-.65.05-1.3.08-2,.09Zm0-.78c.66,0,1.31,0,2-.09v.57c-.65.05-1.3.08-2,.08Zm0-.79c.66,0,1.31,0,2-.08v.57c-.65,0-1.3.08-2,.08Zm0-.78c.66,0,1.31,0,2-.08v.56c-.65.06-1.3.09-2,.09Zm0-.78c.66,0,1.31,0,2-.09V218c-.65.06-1.3.08-2,.09Zm0-.78c.66,0,1.31,0,2-.09v.57c-.65.05-1.3.08-2,.08Zm0-.79c.66,0,1.31,0,2-.08v.57c-.65.05-1.3.08-2,.08Zm0-.78c.66,0,1.31,0,2-.08v.56c-.65.06-1.3.09-2,.09Zm0-.78c.66,0,1.31,0,2-.09v.57c-.65.06-1.3.08-2,.09Zm-2.17,6.17c.64.06,1.3.08,2,.09v.57c-.66,0-1.32,0-2-.09Zm0-.78c.64.05,1.3.08,2,.09v.56c-.66,0-1.32,0-2-.08Zm0-.78c.64.05,1.3.08,2,.08v.57c-.66,0-1.32,0-2-.08Zm0-.78c.64.05,1.3.08,2,.08v.57c-.66,0-1.32,0-2-.09Zm0-.79c.64.06,1.3.09,2,.09v.57c-.66,0-1.32,0-2-.09Zm0-.78c.64.05,1.3.08,2,.09v.56c-.66,0-1.32,0-2-.08Zm0-.78c.64.05,1.3.08,2,.08v.57c-.66,0-1.32,0-2-.08Zm0-.78c.64.05,1.3.08,2,.08v.57c-.66,0-1.32,0-2-.09Zm0-.79c.64.06,1.3.09,2,.09V215c-.66,0-1.32,0-2-.09Zm-2.1,6c.61.1,1.25.18,1.89.24v.57c-.64-.06-1.28-.14-1.89-.25Zm0-.79c.61.11,1.25.19,1.89.25v.57c-.64-.06-1.28-.14-1.89-.25Zm0-.78c.61.11,1.25.19,1.89.25v.57c-.64-.06-1.28-.15-1.89-.25Zm0-.78c.61.1,1.25.19,1.89.25v.56c-.64-.06-1.28-.14-1.89-.25Zm0-.78c.61.1,1.25.18,1.89.24V218c-.64-.06-1.28-.14-1.89-.25Zm0-.79c.61.11,1.25.19,1.89.25v.57c-.64-.06-1.28-.14-1.89-.25Zm0-.78c.61.11,1.25.19,1.89.25v.57c-.64-.06-1.28-.15-1.89-.25Zm0-.78c.61.11,1.25.19,1.89.25v.56c-.64-.06-1.28-.14-1.89-.25Zm0-.78c.61.1,1.25.19,1.89.24v.57c-.64-.06-1.28-.14-1.89-.25Zm-2,5.81c.58.16,1.17.29,1.78.4v.57c-.61-.11-1.2-.25-1.78-.41Zm0-.78c.58.16,1.17.29,1.78.4v.57c-.61-.12-1.2-.25-1.78-.41Zm0-.78c.58.16,1.17.29,1.78.4v.57c-.61-.12-1.2-.25-1.78-.41Zm0-.78c.58.15,1.17.29,1.78.4v.56c-.61-.11-1.2-.25-1.78-.4Zm0-.79c.58.16,1.17.29,1.78.41v.56c-.61-.11-1.2-.25-1.78-.41Zm0-.78c.58.16,1.17.29,1.78.4V217c-.61-.11-1.2-.25-1.78-.41Zm0-.78c.58.16,1.17.29,1.78.4v.57c-.61-.12-1.2-.25-1.78-.41Zm0-.78c.58.15,1.17.29,1.78.4v.56c-.61-.11-1.2-.24-1.78-.4Zm0-.78c.58.15,1.17.28,1.78.4v.56c-.61-.11-1.2-.25-1.78-.4Zm-1.84,5.65c.52.2,1.06.38,1.63.54v.56a15.58,15.58,0,0,1-1.63-.55Zm0-.78c.52.2,1.06.38,1.63.54v.56a15.58,15.58,0,0,1-1.63-.55Zm0-.78c.52.2,1.06.38,1.63.54v.56c-.57-.16-1.11-.35-1.63-.55Zm0-.79a15.58,15.58,0,0,0,1.63.55v.56c-.57-.17-1.11-.35-1.63-.55Zm0-.78c.52.2,1.06.38,1.63.54v.56a15.58,15.58,0,0,1-1.63-.55Zm0-.78c.52.2,1.06.38,1.63.54v.56a15.58,15.58,0,0,1-1.63-.55Zm0-.78c.52.2,1.06.38,1.63.54v.56c-.57-.16-1.11-.35-1.63-.55Zm0-.78c.52.2,1.06.38,1.63.54v.56c-.57-.17-1.11-.35-1.63-.55Zm0-.79c.52.2,1.06.38,1.63.54v.56a15.58,15.58,0,0,1-1.63-.55Zm-1.66,5.51c.46.24.94.46,1.44.67v.55c-.5-.21-1-.44-1.44-.68Zm0-.78a15.78,15.78,0,0,0,1.44.66V219c-.5-.21-1-.44-1.44-.68Zm0-.78a15.78,15.78,0,0,0,1.44.66v.55a13.58,13.58,0,0,1-1.44-.68Zm0-.79a15.83,15.83,0,0,0,1.44.67v.55a15.88,15.88,0,0,1-1.44-.68Zm0-.78c.46.24.94.46,1.44.67v.55c-.5-.21-1-.44-1.44-.68Zm0-.78a15.78,15.78,0,0,0,1.44.66v.56c-.5-.21-1-.44-1.44-.68Zm0-.78a15.78,15.78,0,0,0,1.44.66v.55a13.58,13.58,0,0,1-1.44-.68Zm0-.79a15.83,15.83,0,0,0,1.44.67v.55a15.88,15.88,0,0,1-1.44-.68Zm0-.78c.46.24.94.46,1.44.67v.55a15.88,15.88,0,0,1-1.44-.68Zm-1.91,5a11.39,11.39,0,0,0,1.51,1l.19.1V219l-.09-.05a10.16,10.16,0,0,1-1.61-1.13Zm0-.78a10.48,10.48,0,0,0,1.51,1l.19.11v.54l-.09-.05a10.85,10.85,0,0,1-1.61-1.13Zm0-.79a9.76,9.76,0,0,0,1.51,1l.19.11v.54l-.09-.05a10.88,10.88,0,0,1-1.61-1.14Zm0-.78a11.39,11.39,0,0,0,1.51,1l.19.11v.53l-.09,0a10.88,10.88,0,0,1-1.61-1.14Zm0-.78a11.39,11.39,0,0,0,1.51,1l.19.1v.54l-.09-.05a10.16,10.16,0,0,1-1.61-1.13Zm0-.78a11.39,11.39,0,0,0,1.51,1l.19.1v.54l-.09-.05a10.85,10.85,0,0,1-1.61-1.13Zm0-.79a9.76,9.76,0,0,0,1.51,1l.19.11v.54l-.09-.05a10.88,10.88,0,0,1-1.61-1.14Zm0-.78a10.51,10.51,0,0,0,1.51,1l.19.11v.53l-.09,0a10.88,10.88,0,0,1-1.61-1.14Zm0-.78a11.39,11.39,0,0,0,1.51,1l.19.1v.54l-.09,0a10.88,10.88,0,0,1-1.61-1.14Zm-1.28,4.86a5.92,5.92,0,0,0,1.07,1.21v.49a5.31,5.31,0,0,1-1.07-1.32Zm0-.78a6.2,6.2,0,0,0,1.07,1.21v.49a5.5,5.5,0,0,1-1.07-1.32Zm0-.78a6.2,6.2,0,0,0,1.07,1.21V216a5.35,5.35,0,0,1-1.07-1.33Zm0-.78a6.5,6.5,0,0,0,1.07,1.21v.49a5.53,5.53,0,0,1-1.07-1.33Zm0-.79a5.92,5.92,0,0,0,1.07,1.21v.5a5.53,5.53,0,0,1-1.07-1.33Zm0-.78a6.2,6.2,0,0,0,1.07,1.21v.49a5.5,5.5,0,0,1-1.07-1.32Zm0-.78a6.2,6.2,0,0,0,1.07,1.21v.49a5.5,5.5,0,0,1-1.07-1.32Zm0-.78a6.2,6.2,0,0,0,1.07,1.21v.49a5.53,5.53,0,0,1-1.07-1.33Zm-.22-.84a3.12,3.12,0,0,1-.19-.71,3.75,3.75,0,0,0,.19.41Zm0,.78a3.12,3.12,0,0,1-.19-.71,3,3,0,0,0,.19.41Zm0,.78a3,3,0,0,1-.19-.7,3.62,3.62,0,0,0,.19.4Zm0,.78a3,3,0,0,1-.19-.7,3.75,3.75,0,0,0,.19.41Zm0,.78a3,3,0,0,1-.19-.7,3.75,3.75,0,0,0,.19.41Zm0,.79a3.12,3.12,0,0,1-.19-.71,3,3,0,0,0,.19.41Zm0,.78a3.18,3.18,0,0,1-.19-.7,3.62,3.62,0,0,0,.19.4Zm0,.78a3,3,0,0,1-.19-.7c.05.13.12.27.19.41Zm0,.78a3,3,0,0,1-.19-.7,3.75,3.75,0,0,0,.19.41Zm1.29-5v.5a5.53,5.53,0,0,1-1.07-1.33v-.38A5.92,5.92,0,0,0,368.35,210.83Z" style="fill:#455a64"></path><path d="M364.16,189.1c0-3.32,3.57-7.37,8-9a26.23,26.23,0,0,1,16,0c4.41,1.66,8,5.71,8,9v18.57c0,2.36-1.56,4.72-4.68,6.52-6.24,3.6-16.35,3.6-22.59,0-3.12-1.8-4.68-4.16-4.68-6.52h0V195.13h0Z" style="fill:#BA68C8"></path><path d="M364.16,189.1c0-3.32,3.57-7.37,8-9a26.23,26.23,0,0,1,16,0c4.41,1.66,8,5.71,8,9v18.57c0,2.36-1.56,4.72-4.68,6.52-6.24,3.6-16.35,3.6-22.59,0-3.12-1.8-4.68-4.16-4.68-6.52h0V195.13h0Z" style="fill:#fff;opacity:0.2"></path><path d="M390.88,196c-5.94,3.83-15.56,3.83-21.49,0s-5.94-10,0-13.85,15.55-3.83,21.49,0S396.81,192.21,390.88,196Z" style="fill:#fff;opacity:0.35000000000000003"></path><path d="M390.18,195c-5.55,3.58-14.55,3.58-20.1,0s-5.55-9.38,0-13,14.55-3.57,20.1,0S395.73,191.37,390.18,195Z" style="fill:#fff;opacity:0.4"></path><path d="M370,214.82l2.29-.35A22.15,22.15,0,0,0,390.88,196h0c3-1.92,4.46-4.43,4.45-6.94v21.42a10.11,10.11,0,0,1-3.9,3.68C385.58,217.57,376.32,217.78,370,214.82Z" style="fill:#BA68C8;opacity:0.4"></path><path d="M393.3,194a7.33,7.33,0,0,0,2-4.91v21.42a8.68,8.68,0,0,1-2,2.38Z" style="opacity:0.1"></path><path d="M376.67,188.71v-.63h.17a2.26,2.26,0,0,1,.91-.87,5.72,5.72,0,0,1,5.22,0,2.32,2.32,0,0,1,.91.87h.17v.63h0a1.84,1.84,0,0,1-1.08,1.51,5.78,5.78,0,0,1-5.22,0A1.84,1.84,0,0,1,376.67,188.71Z" style="fill:#37474f"></path><path d="M383,189.58c1.44-.83,1.44-2.17,0-3a5.78,5.78,0,0,0-5.22,0c-1.44.84-1.44,2.18,0,3A5.72,5.72,0,0,0,383,189.58Z" style="fill:#455a64"></path><path d="M380.38,189.24a2.61,2.61,0,0,0,1.32-.33c.56-.32.76-.82.49-1.27a.17.17,0,0,0-.24-.07.18.18,0,0,0-.07.25c.16.27,0,.56-.36.78a2.56,2.56,0,0,1-2.29,0,.7.7,0,0,1-.42-.56.69.69,0,0,1,.42-.55,2.52,2.52,0,0,1,1.63-.23.18.18,0,1,0,.06-.36,2.92,2.92,0,0,0-1.87.27,1,1,0,0,0-.6.87,1,1,0,0,0,.6.87A2.65,2.65,0,0,0,380.38,189.24Z" style="fill:#BA68C8"></path><path d="M380.73,188l.09,0,1.4-.81a.18.18,0,0,0,.07-.25.19.19,0,0,0-.25-.06l-1.4.8a.18.18,0,0,0-.07.25A.19.19,0,0,0,380.73,188Z" style="fill:#BA68C8"></path><path d="M374.41,186.14v-.61h0a.78.78,0,0,1,.29-.28,1.8,1.8,0,0,1,1.63,0,.75.75,0,0,1,.28.28h0v.61h0a.57.57,0,0,1-.33.47,1.8,1.8,0,0,1-1.63,0A.57.57,0,0,1,374.41,186.14Z" style="fill:#37474f"></path><path d="M376.38,186a.5.5,0,0,0,0-.94,1.8,1.8,0,0,0-1.63,0,.5.5,0,0,0,0,.94A1.8,1.8,0,0,0,376.38,186Z" style="fill:#455a64"></path><path d="M383.55,191.41v-.61h.05a.76.76,0,0,1,.29-.27,1.8,1.8,0,0,1,1.63,0,.66.66,0,0,1,.28.27h.06v.61h0a.6.6,0,0,1-.34.48,1.87,1.87,0,0,1-1.63,0A.58.58,0,0,1,383.55,191.41Z" style="fill:#37474f"></path><path d="M385.52,191.27a.5.5,0,0,0,0-.94,1.8,1.8,0,0,0-1.63,0,.5.5,0,0,0,0,.94A1.8,1.8,0,0,0,385.52,191.27Z" style="fill:#455a64"></path><path d="M370.37,205l-2.65-1.53a.31.31,0,0,1-.12-.26v-1.51a1.84,1.84,0,0,1,.42-1.33.8.8,0,0,1,1-.07,3.84,3.84,0,0,1,1.45,3.07v1.51C370.5,205,370.44,205,370.37,205Z" style="fill:#37474f"></path><path d="M367.73,203.91l2.64,1.52a.36.36,0,0,1,.12.29c-.07,1.09-.69,1.62-1.44,1.19a3.78,3.78,0,0,1-1.45-2.86C367.6,203.93,367.66,203.87,367.73,203.91Z" style="fill:#37474f"></path><path d="M368.84,207.68a4.62,4.62,0,0,1-2-4.2.2.2,0,0,1,.2-.2.2.2,0,0,1,.21.2,4.24,4.24,0,0,0,1.84,3.85,1,1,0,0,0,1,.08,2,2,0,0,0,.78-1.69.2.2,0,0,1,.4,0,2.34,2.34,0,0,1-1,2,1.2,1.2,0,0,1-.57.15,1.36,1.36,0,0,1-.38-.06v1.28l.57.33a.21.21,0,0,1,.08.28.2.2,0,0,1-.18.1l-.1,0-1.35-.78a.21.21,0,0,1-.07-.28.2.2,0,0,1,.28-.07l.36.21v-1.22Z" style="fill:#37474f"></path></g></g></g><g id="freepik--speech-bubble--inject-34"><g id="freepik--speech-bubble--inject-34"><g id="freepik--speech-bubble--inject-34"><path d="M383.56,135.25,380,137.32l3.3,9.52a1.07,1.07,0,0,0,1.55.57l3.57-2.06a1.09,1.09,0,0,0,.38-.39l2.9-5Z" style="fill:#37474f"></path><path d="M380,137.32l3.3,9.52a1.06,1.06,0,0,0,1.92.19l2.9-5Z" style="fill:#455a64"></path><path d="M346.3,74.64,438,127.57a1.87,1.87,0,0,1,.84,1.46V165a1.82,1.82,0,0,1-.85,1.45l-3,1.74a1.9,1.9,0,0,1-1.69,0L341.6,115.21a1.86,1.86,0,0,1-.85-1.46v-36a1.82,1.82,0,0,1,.85-1.45l3-1.69A1.84,1.84,0,0,1,346.3,74.64Z" style="fill:#455a64"></path><path d="M340.77,77.61c.06-.42.41-.57.83-.33l91.68,52.94a1.71,1.71,0,0,1,.59.63l4.7-2.68a1.86,1.86,0,0,0-.58-.6L346.3,74.63a1.9,1.9,0,0,0-1.69,0l-3,1.69A1.82,1.82,0,0,0,340.77,77.61Z" style="fill:#37474f"></path><path d="M434.12,167.66v-36a1.87,1.87,0,0,0-.84-1.46L341.6,77.28c-.47-.27-.85,0-.85.49v36a1.86,1.86,0,0,0,.85,1.46l91.68,52.94C433.74,168.42,434.12,168.2,434.12,167.66Z" style="fill:#455a64"></path><path d="M433.28,168.15a1.93,1.93,0,0,0,1.69,0l3-1.74a1.82,1.82,0,0,0,.85-1.45V129a1.67,1.67,0,0,0-.27-.86l-4.69,2.68a1.63,1.63,0,0,1,.25.83v36C434.12,168.15,433.78,168.44,433.28,168.15Z" style="fill:#263238;opacity:0.2"></path></g><path d="M346.84,110.29a.18.18,0,0,1-.08-.07.16.16,0,0,1,0-.09v-.39l-1.21-.7-.07-.07a.16.16,0,0,1,0-.09v-.41a.16.16,0,0,1,.05-.13l1.15-.79.06,0,.08,0,.58.33a.23.23,0,0,1,.07.07.23.23,0,0,1,0,.09v1.48l.33.19a.16.16,0,0,1,.07.07.16.16,0,0,1,0,.09v.41a.05.05,0,0,1,0,0,.06.06,0,0,1-.07,0l-.33-.19v.39a.06.06,0,0,1,0,.06.11.11,0,0,1-.07,0Zm-.09-1.15v-.71l-.56.38Z" style="fill:#fff"></path><path d="M349.11,110.16a.06.06,0,0,1,0,.06H349l-.5-.3a.16.16,0,0,1-.07-.07.16.16,0,0,1,0-.09v-.5a.06.06,0,0,1,0-.06.11.11,0,0,1,.07,0l.5.29a.18.18,0,0,1,.08.07.16.16,0,0,1,0,.09Zm0,1.34a.06.06,0,0,1,0,.06.12.12,0,0,1-.08,0l-.5-.29a.19.19,0,0,1-.07-.08.16.16,0,0,1,0-.09v-.5s0,0,0,0a.06.06,0,0,1,.07,0l.5.29a.18.18,0,0,1,.08.07.16.16,0,0,1,0,.09Z" style="fill:#fff"></path><path d="M351,112.72a.23.23,0,0,1-.07-.07.16.16,0,0,1,0-.09v-.39l-1.21-.7a.16.16,0,0,1-.07-.07.16.16,0,0,1,0-.09v-.41a.16.16,0,0,1,.05-.13l1.15-.79.06,0,.08,0,.58.33a.46.46,0,0,1,.07.07.23.23,0,0,1,0,.09V112l.33.19a.16.16,0,0,1,.07.07.16.16,0,0,1,0,.09v.4a.06.06,0,0,1,0,.06.06.06,0,0,1-.07,0l-.33-.19V113s0,0,0,0a.06.06,0,0,1-.07,0Zm-.08-1.15v-.71l-.56.38Z" style="fill:#fff"></path><path d="M352.82,113.66a.06.06,0,0,1,0,0l.83-1.46-1.14-.66a.18.18,0,0,1-.08-.07.16.16,0,0,1,0-.09v-.41a.05.05,0,0,1,0-.05.08.08,0,0,1,.08,0l1.83,1.06a.16.16,0,0,1,.07.07.16.16,0,0,1,0,.09v.36a.35.35,0,0,1-.06.16l-.83,1.45s0,0,0,0a.06.06,0,0,1-.07,0l-.54-.31a.13.13,0,0,1-.07-.06A.31.31,0,0,1,352.82,113.66Z" style="fill:#fff"></path><path d="M422.37,153a.58.58,0,0,1-.09.35.42.42,0,0,1-.25.16,1,1,0,0,1-.37,0,2,2,0,0,1-.43-.19,2.24,2.24,0,0,1-.44-.32,2.79,2.79,0,0,1-.37-.4,2.16,2.16,0,0,1-.25-.44,1.29,1.29,0,0,1-.09-.46.56.56,0,0,1,0-.2.61.61,0,0,1,.07-.14l.09-.11a.39.39,0,0,0,.1-.08l.73-.56,0,0s0,0,.08,0l.61.35a.17.17,0,0,1,.06.06.14.14,0,0,1,0,.07s0,0,0,0h0l-.5.38a3.79,3.79,0,0,1,.38.32,2.24,2.24,0,0,1,.31.38,1.93,1.93,0,0,1,.21.4A1.3,1.3,0,0,1,422.37,153Zm-1.58-.91a.38.38,0,0,0,0,.17.75.75,0,0,0,.1.17l.14.14a.61.61,0,0,0,.16.12l.16.07a.31.31,0,0,0,.13,0,.16.16,0,0,0,.1-.05.17.17,0,0,0,0-.13.35.35,0,0,0,0-.17.75.75,0,0,0-.1-.17.57.57,0,0,0-.13-.14l-.16-.12-.16-.07a.34.34,0,0,0-.14,0,.12.12,0,0,0-.1.05A.17.17,0,0,0,420.79,152.07Z" style="fill:#fff"></path><path d="M423.59,153.16a.06.06,0,0,1,0,.06s0,0-.07,0l-.5-.29a.27.27,0,0,1-.08-.07.23.23,0,0,1,0-.09v-.51a.05.05,0,0,1,0-.05.08.08,0,0,1,.08,0l.5.29a.23.23,0,0,1,.07.07.16.16,0,0,1,0,.09Zm0,1.35a.05.05,0,0,1,0,.05.06.06,0,0,1-.07,0l-.5-.29a.27.27,0,0,1-.08-.07.23.23,0,0,1,0-.09v-.51a.05.05,0,0,1,0-.05.08.08,0,0,1,.08,0l.5.29a.23.23,0,0,1,.07.07.23.23,0,0,1,0,.09Z" style="fill:#fff"></path><path d="M426.18,153.42a.23.23,0,0,1,.07.07.19.19,0,0,1,0,.09V154a.08.08,0,0,1,0,.06l-.05,0-.47.2a2.72,2.72,0,0,1,.49.54,1.11,1.11,0,0,1,.19.59q0,.43-.3.48a1.43,1.43,0,0,1-.84-.27,3.54,3.54,0,0,1-.49-.34,3,3,0,0,1-.35-.38,1.75,1.75,0,0,1-.23-.38.88.88,0,0,1-.08-.32.08.08,0,0,1,0,0h.06l.49.28a.43.43,0,0,1,.12.11l.09.13.14.16a1.24,1.24,0,0,0,.23.17.72.72,0,0,0,.31.11q.12,0,.12-.12a.41.41,0,0,0-.12-.27,1.31,1.31,0,0,0-.31-.23l-.32-.19-.07-.07a.16.16,0,0,1,0-.09v-.33a.06.06,0,0,1,0-.06l.05,0,.41-.18-1-.57a.3.3,0,0,1-.08-.08.16.16,0,0,1,0-.09v-.4a.06.06,0,0,1,0-.06.11.11,0,0,1,.08,0Z" style="fill:#fff"></path><path d="M428.1,154.49a2.33,2.33,0,0,1,.49.37,2.16,2.16,0,0,1,.34.42,2.27,2.27,0,0,1,.21.45,1.75,1.75,0,0,1,.07.44c0,.12,0,.23,0,.35s0,.23,0,.34a1,1,0,0,1-.07.35.43.43,0,0,1-.21.21.61.61,0,0,1-.34,0,1.44,1.44,0,0,1-.49-.2,2.5,2.5,0,0,1-.5-.37,2.21,2.21,0,0,1-.34-.43,1.58,1.58,0,0,1-.2-.44,1.53,1.53,0,0,1-.08-.45c0-.11,0-.22,0-.34s0-.23,0-.34a.78.78,0,0,1,.08-.35.38.38,0,0,1,.2-.21.47.47,0,0,1,.34,0A1.57,1.57,0,0,1,428.1,154.49Zm.41,1.94c0-.21,0-.43,0-.65l0-.19a1.34,1.34,0,0,0-.07-.18.61.61,0,0,0-.12-.16,1,1,0,0,0-.19-.15.53.53,0,0,0-.2-.07.16.16,0,0,0-.12,0,.2.2,0,0,0-.07.1.7.7,0,0,0,0,.16,3.42,3.42,0,0,0,0,.64,1.11,1.11,0,0,0,0,.19.56.56,0,0,0,.07.18.66.66,0,0,0,.12.17.78.78,0,0,0,.2.14.48.48,0,0,0,.19.08.16.16,0,0,0,.12,0,.18.18,0,0,0,.07-.1A.76.76,0,0,0,428.51,156.43Z" style="fill:#fff"></path><path d="M359.4,114l55.84,32.24A3.56,3.56,0,0,1,416.9,149c0,1-.74,1.37-1.66.84L359.4,117.59a3.55,3.55,0,0,1-1.66-2.76C357.74,113.84,358.48,113.46,359.4,114Z" style="fill:#fff;opacity:0.30000000000000004"></path><path d="M359.4,114l41.93,24.21A3.56,3.56,0,0,1,403,141c0,1-.74,1.37-1.66.84L359.4,117.59a3.55,3.55,0,0,1-1.66-2.76C357.74,113.84,358.48,113.46,359.4,114Z" style="fill:#fff"></path><path d="M374,105.27a.42.42,0,0,1,.17.21.66.66,0,0,1,.07.3v9a.28.28,0,0,1-.07.22.14.14,0,0,1-.17,0l-.73-.43a.38.38,0,0,1-.17-.21.66.66,0,0,1-.07-.3v-3.66l-2.72-1.57v3.66a.28.28,0,0,1-.07.22.12.12,0,0,1-.17,0l-.73-.42a.38.38,0,0,1-.17-.2.68.68,0,0,1-.08-.31v-9a.28.28,0,0,1,.08-.22s.1,0,.17,0l.73.42a.54.54,0,0,1,.17.21.73.73,0,0,1,.07.31v3.56l2.72,1.57v-3.56a.28.28,0,0,1,.07-.22.13.13,0,0,1,.17,0Z" style="fill:#fff"></path><path d="M378.65,107.93a.5.5,0,0,1,.21.24,2.11,2.11,0,0,1,.13.42l2.2,10a.31.31,0,0,1,0,.1.29.29,0,0,1-.07.22.13.13,0,0,1-.17,0l-.65-.37a.59.59,0,0,1-.25-.27,1.37,1.37,0,0,1-.1-.28l-.39-1.76-2.84-1.65-.39,1.32a.33.33,0,0,1-.1.17s-.13,0-.25,0l-.65-.37a.54.54,0,0,1-.17-.21.67.67,0,0,1-.07-.31.28.28,0,0,1,0-.09l2.2-7.48a.66.66,0,0,1,.13-.28c.05,0,.12,0,.22,0Zm.49,6.36-1-4.52-1,3.38Z" style="fill:#fff"></path><path d="M384.68,111.41a4.34,4.34,0,0,1,1.69,1.76,5.65,5.65,0,0,1,.6,2.67,2.46,2.46,0,0,1-.6,2c-.4.3-1,.24-1.69-.18l-1.44-.83v3.09a.32.32,0,0,1-.07.22.15.15,0,0,1-.18,0l-.73-.43a.42.42,0,0,1-.17-.21.82.82,0,0,1-.07-.3v-9a.32.32,0,0,1,.07-.22.12.12,0,0,1,.17,0Zm-1.44,3.67,1.39.8a.94.94,0,0,0,.82.17c.21-.09.31-.4.31-.92a2.25,2.25,0,0,0-.31-1.25,2.43,2.43,0,0,0-.82-.77l-1.39-.8Z" style="fill:#fff"></path><path d="M390.61,114.83a4.37,4.37,0,0,1,1.69,1.77,5.61,5.61,0,0,1,.6,2.66q0,1.53-.6,2c-.4.3-1,.25-1.69-.17l-1.44-.84v3.09a.35.35,0,0,1-.07.23.15.15,0,0,1-.18,0l-.72-.42a.48.48,0,0,1-.18-.21.82.82,0,0,1-.07-.31v-9a.34.34,0,0,1,.07-.22.14.14,0,0,1,.18,0Zm-1.44,3.67,1.39.81a.93.93,0,0,0,.82.16c.21-.09.31-.39.31-.91a2.2,2.2,0,0,0-.31-1.25,2.25,2.25,0,0,0-.82-.77l-1.39-.81Z" style="fill:#fff"></path><path d="M398.47,119.37a.54.54,0,0,1,.17.21.82.82,0,0,1,.07.3.37.37,0,0,1,0,.12l-2.13,4.54v3a.32.32,0,0,1-.07.22.14.14,0,0,1-.18,0l-.72-.41a.54.54,0,0,1-.17-.21.66.66,0,0,1-.07-.3v-3.05l-2.13-7a.68.68,0,0,1,0-.14.29.29,0,0,1,.07-.22.12.12,0,0,1,.17,0l.68.39a.69.69,0,0,1,.27.29c.06.13.09.22.11.27l1.45,4.77,1.46-3.08a.4.4,0,0,1,.11-.15c.06-.06.15,0,.27,0Z" style="fill:#fff"></path><path d="M402.37,124.37a.38.38,0,0,1,.17.21.66.66,0,0,1,.07.3v1.36a.29.29,0,0,1-.07.22.12.12,0,0,1-.17,0l-.84-.48a.54.54,0,0,1-.17-.21.66.66,0,0,1-.07-.3v-1.36a.28.28,0,0,1,.07-.22.12.12,0,0,1,.17,0Zm0,4.85a.38.38,0,0,1,.17.21.66.66,0,0,1,.07.3v1.36a.29.29,0,0,1-.07.22.12.12,0,0,1-.17,0l-.84-.48a.54.54,0,0,1-.17-.21.67.67,0,0,1-.07-.31V129a.3.3,0,0,1,.07-.23.14.14,0,0,1,.17,0Z" style="fill:#fff"></path><path d="M403.68,132.62a.54.54,0,0,0,.59-.05,1.34,1.34,0,0,0,.37-.73,8.05,8.05,0,0,0,.19-1.37c0-.56.05-1.22.05-2s0-1.44-.05-2a12.86,12.86,0,0,0-.19-1.59,4.36,4.36,0,0,0-.37-1.14,1.9,1.9,0,0,0-.59-.73.48.48,0,0,1-.17-.22.67.67,0,0,1-.08-.3v-.91a.27.27,0,0,1,.08-.22.12.12,0,0,1,.17,0,3.42,3.42,0,0,1,1.13,1.08,6.42,6.42,0,0,1,.73,1.67,12.45,12.45,0,0,1,.39,2.26c.08.86.12,1.8.12,2.84a26.23,26.23,0,0,1-.12,2.7,6.4,6.4,0,0,1-.39,1.8,1.39,1.39,0,0,1-.73.83,1.35,1.35,0,0,1-1.13-.22.41.41,0,0,1-.17-.21.68.68,0,0,1-.08-.31v-.91a.26.26,0,0,1,.08-.21S403.61,132.59,403.68,132.62Z" style="fill:#fff"></path><path d="M352,93.63l-2.76,1.21a.3.3,0,0,0-.12.27v3.34a.85.85,0,0,0,.12.41l2.76,4.4c.3.49.71.39.71-.17V94.62C352.68,94.06,352.27,93.49,352,93.63Zm-3.83.71-.47-.27c-.21-.12-.37,0-.37.36v2.64a1,1,0,0,0,.37.78l.47.27c.2.12.37,0,.37-.36V95.13A1,1,0,0,0,348.14,94.34Zm5.21,3V101c.42-.11.71-.63.71-1.42A4.11,4.11,0,0,0,353.35,97.37Z" style="fill:#fafafa"></path><path d="M423.56,132.65l-.92-.53c-.3-.17-.55,0-.55.41v9.79a1.31,1.31,0,0,0,.55,1l.92.53c.3.18.54,0,.54-.41v-9.79A1.31,1.31,0,0,0,423.56,132.65Zm4.35,2.51-.92-.53c-.3-.17-.55,0-.55.41v9.79a1.31,1.31,0,0,0,.55,1l.92.53c.3.18.54,0,.54-.41V136.2A1.31,1.31,0,0,0,427.91,135.16Z" style="fill:#fafafa"></path></g></g><g id="freepik--Character--inject-34"><ellipse id="freepik--shadow--inject-34" cx="176.87" cy="403.41" rx="51.7" ry="29.85" style="fill:#BA68C8;opacity:0.30000000000000004"></ellipse><g id="freepik--character--inject-34"><g id="freepik--Bottom--inject-34"><path d="M231.74,220.61C218.46,194,211.18,185.75,201.15,175c-3.32,11.72-8.18,33.57-8.18,33.57l-2.31,24s6.8,11.91,12.63,21.57c-3.27,1.09-6.14,2.57-10.81,5.54-7.33,4.68-16.18,15.11-25.39,22.88-6.74,5.67-8.13,5.81-10.14,5.82-1.16,0-2.55-.05-2.55-.05s-8-4-10.5.13c-1.84,3-2.43,9.7-8.72,13.4-7.46,4.39-9.93,5.26-10.45,11.9-.45,5.68,2,15.9,7.24,20.28a3,3,0,0,0,3.46-.93c1.94-2.56,1.49-4.39,2.75-7.7s5.41-7.43,8.28-10.14A43.28,43.28,0,0,1,158,308c3.72-1.55,9.22-3.91,15-6,13.31-4.9,50.37-18.15,66.06-31.38C251.62,260,244.46,246.1,231.74,220.61Z" style="fill:#af6152"></path><path d="M216.69,265.72c-6.57-2.14-11.25-8-13.25-11.41h-.51c-1,.34-1.91.71-2.88,1.15C203.31,260.38,209.61,265.41,216.69,265.72Z" style="opacity:0.2"></path><path d="M132.61,335.25c-2.39,1.26-4.46.45-7-4.45a62.59,62.59,0,0,1-5.88-18.64c-.57-5.47,2.47-8.31,7.46-10.9s8.17-4.22,9.81-5.33,2.86-4.75,3.69-6.14a3.82,3.82,0,0,1,3.61-2.17h0c-2.85,2.09-3.24,7.62-8.1,10.66-4.23,2.64-9.55,4.63-12.7,8.08s-.84,11.14,3.22,20.45C129.39,333,131,334.92,132.61,335.25Z" style="fill:#BA68C8"></path><path d="M132.61,335.25c-2.39,1.26-4.46.45-7-4.45a62.59,62.59,0,0,1-5.88-18.64c-.57-5.47,2.47-8.31,7.46-10.9s8.17-4.22,9.81-5.33,2.86-4.75,3.69-6.14a3.82,3.82,0,0,1,3.61-2.17h0c-2.85,2.09-3.24,7.62-8.1,10.66-4.23,2.64-9.55,4.63-12.7,8.08s-.84,11.14,3.22,20.45C129.39,333,131,334.92,132.61,335.25Z" style="opacity:0.2"></path><path d="M145.85,286.94c-3.43,2.74-1.67,7-6.55,11.66s-9.05,7.08-9.85,9.75c4.81,2,9.15,5.37,11.05,12.74s-2.37,12.73-5.25,13.73-4.48,1.3-8.54-8-6.37-17-3.22-20.45,8.47-5.44,12.7-8.08C141.84,294.76,141.35,287.92,145.85,286.94Z" style="fill:#BA68C8"></path><path d="M179.05,396.24c-1-3.94-1.09-11.55-.86-17,.72-17,3.84-38.78,5.94-55.5,4.41-35.15,5.9-41.94,7.1-57.17,1.41-17.81,1.31-37.76,1.31-37.76s7.31-2.54,13.92-15.19c2.27-4.34,4.52-8.87,8.88-22.16-.46-6.17-.79-9.29-.86-14,0,0-9.21,10.11-28.82,9.6-16.76-.43-25.39-8.74-25.39-8.74a22,22,0,0,1-1.11,6.12,92.37,92.37,0,0,1-9.24,17.31c-3.28,5-7.62,12.62-6.49,22.71a226.91,226.91,0,0,0,5.11,30.06c3.53,15.84,8.23,42,8.23,42-3.61,9.64-5.39,15.32-1.85,35.78,2,11.54,5.47,30.84,4.84,36.64a10.45,10.45,0,0,1-2.44,4.81c-1.14,1.38-3.74,3.73-3.29,8.24-.1,3.43,6.53,7.32,7.35,16,.83,8.88.45,13.45,5.87,15.75s18,1.86,19.45,1.83c6.59-.1,2.21-6.54,2.21-6.54C187.11,406.31,180,400.18,179.05,396.24Z" style="fill:#c8856a"></path><path d="M191.41,415.29c.07,2.7-1.58,4.19-7.1,4.29a62.18,62.18,0,0,1-19.32-3c-5.14-1.92-6.34-5.91-6.44-11.52s-.14-9.2-.41-11.17-3-4.67-3.85-6a3.73,3.73,0,0,1-.33-4.15l.13,0c.6,3.48,5.24,6.22,5.8,11.93.48,5-.1,10.61,1.59,15s9.6,5.7,19.75,6.21C187.93,417.15,190.39,416.58,191.41,415.29Z" style="fill:#BA68C8"></path><path d="M191.41,415.29c.07,2.7-1.58,4.19-7.1,4.29a62.18,62.18,0,0,1-19.32-3c-5.14-1.92-6.34-5.91-6.44-11.52s-.14-9.2-.41-11.17-3-4.67-3.85-6a3.73,3.73,0,0,1-.33-4.15l.13,0c.6,3.48,5.24,6.22,5.8,11.93.48,5-.1,10.61,1.59,15s9.6,5.7,19.75,6.21C187.93,417.15,190.39,416.58,191.41,415.29Z" style="opacity:0.2"></path><path d="M154,381.94c.93,4.29,5.56,4.63,7.53,11.05s2.31,11.26,4.35,13.16c4-3.39,8.88-5.8,16.33-4.23s10.34,7.79,10,10.81-.83,4.59-11,4.09-18-1.86-19.74-6.21-1.1-10-1.59-15C159.25,389,152.9,386.41,154,381.94Z" style="fill:#BA68C8"></path><path d="M158.48,186.94c-1.36-1.81-2.42,2.84-4.63,5-3,3-1.34,4.27-1.34,4.27A49.62,49.62,0,0,0,143.34,211c-3.15,8.4-2.68,17.74-2.12,25.45s1.61,18.9,1.61,18.9,7.29,3.56,10.12,4.22a37.82,37.82,0,0,1,.7-13.6,59.26,59.26,0,0,0,2.68,14.66,72.64,72.64,0,0,0,20.3,1.34c12.6-1.18,16.23-4.44,16.23-4.44l.67-11.76,6.58,11.35s32-.28,38.94-23.74c-8.08-15.11-19-34.78-19-34.78s1.31-1.49-1.5-5.18-1.43-7.24-3.5-6c-2.75,4-11.81,8.09-25.83,8.13C180.07,195.58,165.81,193.6,158.48,186.94Z" style="fill:#BA68C8"></path><path d="M161.85,200.38l-.92-.63c-2.78,4-6.11,9.56-7.07,16.75a196.16,196.16,0,0,0-.9,33.33c.16-1.21.38-2.48.69-3.87.1,1.36.25,2.91.45,4.53-.64-11.77-.37-24.57.87-33.84C155.9,209.69,159.14,204.3,161.85,200.38Z" style="fill:#fff"></path><path d="M218.56,193.41c-2.86-3.76-1.43-7.24-3.5-6-2.75,4-11.81,8.09-25.83,8.13-9.16,0-23.42-2-30.75-8.61-1.36-1.81-2.42,2.84-4.63,5-2.45,2.42-1.81,3.72-1.48,4.13l.14.14c5.3,5.3,17.33,9.72,35.14,10.41s28.14-4.4,32.41-8C220.06,198.59,221.37,197.1,218.56,193.41Z" style="fill:#BA68C8"></path><path d="M218.56,193.41c-2.86-3.76-1.43-7.24-3.5-6-2.75,4-11.81,8.09-25.83,8.13-9.16,0-23.42-2-30.75-8.61-1.36-1.81-2.42,2.84-4.63,5-2.45,2.42-1.81,3.72-1.48,4.13l.14.14c5.3,5.3,17.33,9.72,35.14,10.41s28.14-4.4,32.41-8C220.06,198.59,221.37,197.1,218.56,193.41Z" style="opacity:0.15"></path><g style="opacity:0.1"><path d="M152.51,196.23a22.19,22.19,0,0,0,6.91,4.27,55.73,55.73,0,0,0,8.69,2.9,89.57,89.57,0,0,0,18.15,2.6,65.55,65.55,0,0,0,18.22-1.3,47,47,0,0,0,8.36-2.3,27.74,27.74,0,0,0,7.22-3.81c-4.68,4.07-9.4,5.43-15.38,6.94A53,53,0,0,1,195.5,207c-1.55.16-3.1.17-4.65.23s-3.11,0-4.65-.1a92.23,92.23,0,0,1-9.23-1,68.51,68.51,0,0,1-9.08-1.93,56.52,56.52,0,0,1-8.7-3.24A20.92,20.92,0,0,1,152.51,196.23Z"></path></g><path d="M193.53,245.76l.7-13.12s8.72-1.38,16.32-11.55c-1.35,9.89-11.86,15.33-11.86,15.33l-1.2,11.17,2.62,9.52Z" style="opacity:0.1"></path><path d="M207.55,210.87a7.35,7.35,0,0,0-.11-.82c-.1-.27-.24-.53-.36-.79-.22-.45-.43-.89-.67-1.32-.48-.84-1-1.68-1.52-2.48a9.84,9.84,0,0,0-2.33-2.44c2.28-1.17,5.94-3.52,3.35-5.46a3.18,3.18,0,0,0-3.72.25,4.09,4.09,0,0,0-1.69,3.1,6.44,6.44,0,0,0-4.36-2.58c-1.28-.23-3.67-.33-3.94,1.42-.23,1.55,1.49,2.53,2.73,2.89a11.17,11.17,0,0,0,3,.45,8,8,0,0,0-.61,4.35c.15,1.4.47,2.78.6,4.18a15.35,15.35,0,0,1-.87,5.37c-.07.24.2.83.48.51,1.94-2.18,2.15-4.89,1.69-7.64a16.59,16.59,0,0,1-.42-3.78,4.09,4.09,0,0,1,1.34-3,1.52,1.52,0,0,0,.62.54,6.75,6.75,0,0,1,3,2.75c.39.58.74,1.19,1.09,1.8s.56,1,.83,1.44c.17.29.32.61.52.89s.43.45.61.71C207.12,211.68,207.68,211.43,207.55,210.87Zm-4.86-11.62c.5-.4,1.86-1.19,2.52-.67s-1.58,1.74-1.89,1.94a19.65,19.65,0,0,1-2.15,1.2l0-.05A4.58,4.58,0,0,1,202.69,199.25Zm-6.06,2.35c-.61-.07-3.61-.47-2.95-1.55.5-.84,2.47-.49,3.21-.31a13.29,13.29,0,0,1,3.36,1.65l-.33.07A11,11,0,0,1,196.63,201.6Z" style="fill:#263238"></path></g><g id="freepik--Top--inject-34"><g id="freepik--Arm--inject-34"><path d="M221.24,61.46c-9.76-2.31-15.23-.63-27.43-.19-10,.37-12.81.25-16.19-.47a57,57,0,0,1-7-2.2,28.09,28.09,0,0,0-9.85-2.28,28.86,28.86,0,0,0-9.56,1.23c-1.23.32-1.9,1.4-1.76,2a6.51,6.51,0,0,0-3.07,1.26A10.63,10.63,0,0,0,144.71,63c-.84,1.16-2,1.38-3.38,1.6a4.24,4.24,0,0,0-1.87.55c-.85.63-.55,1.4,0,2A6.11,6.11,0,0,0,142.7,69a40.07,40.07,0,0,0,6,.42c3.05.25,8,.61,10.51,2.43.51.37,1.47,1.3.32,1.48a27.08,27.08,0,0,0-4.48.87A5.46,5.46,0,0,0,151.66,77a1.84,1.84,0,0,0-.11,1.34c.22.61.65.6,1.17.56a14.62,14.62,0,0,1,1.62.06l3.37.2c6.54.33,9,.82,15-2.2.86-.44,4.22-2.59,7.4-2.59s27.34,5.12,27.34,5.12a281.33,281.33,0,0,1-9.44,28c-.85,2.09-2.49,3.91-5.19,7.48-1.32,1.74-2.67,3.34-4.07,3.88l24.71,20.8c-.46-6.71,0-9.82,2.6-17.89,4.1-12.75,11-31.57,12.27-44.18C229.75,63,227.38,62.91,221.24,61.46Z" style="fill:#c8856a"></path><path d="M162.72,71.08A11.85,11.85,0,0,1,173,67.55s-3-1.64-5.7-.69A7.34,7.34,0,0,0,162.72,71.08Z" style="fill:#af6152"></path></g><g id="freepik--arm--inject-34"><path d="M111.16,55.25c-1.29.43-1.11-2.12-1.18-2.89a22.52,22.52,0,0,1,.12-4.1c.15-1.52.22-3.86.26-6.54a17.58,17.58,0,0,0-.79-5.66,3.4,3.4,0,0,0-2-2.37c-1.26-.4-1.61,1-1.78,2.15a9.25,9.25,0,0,0-1.63.43,2.86,2.86,0,0,0-1.71,2.17,4.49,4.49,0,0,0-4,3.37c-.17.78-.25.73-1,1-1.31.58-1.43,1.88-1.79,3.12-1.11,3.88-1.82,6.06-1.79,10.11,0,5.41,2.12,10.63,3,15.9a20.64,20.64,0,0,1,.27,5.6c-.49,5.42-.65,8.89-1,14.32-.21,3.13-.83,9.71-1,14.16-.34,10.34-.29,9.6,8.93,17,14.6,11.64,42.21,22.21,49.53,35.83,10,.93,15.57-19.07,6.16-34.87-3.36.44-5.49-1.06-10-2.67-3.38-1.18-7.66-2.85-10.45-4.19-6.59-3.17-23.71-12-23.71-12s-3.19-22.9-3.65-27.75-.54-5-.2-9c.86-2,3.67-4.9,4.58-7.41" style="fill:#c8856a"></path><path d="M115.6,105.14c.1,2.31-.13,9.7-3.22,11.8,4.86-1.58,5.06-8.62,4.83-11Z" style="fill:#af6152"></path><path d="M106.42,56.29c-2.59,3.21-3,8.91-1,13.76C102,67.81,100.45,59.34,106.42,56.29Z" style="fill:#af6152"></path><g id="freepik--Mobile--inject-34"><path d="M84.66,68.88,83,48.32a1.89,1.89,0,0,1,.76-1.7l34.13-23.68a2.09,2.09,0,0,1,1.75-.31l1.34.63a2.18,2.18,0,0,1,1,1.63l1.7,20.48a2.3,2.3,0,0,1-.87,1.86l-34,23.6a2.18,2.18,0,0,1-1.92.23l-1.37-.65A2.06,2.06,0,0,1,84.66,68.88Z" style="fill:#37474f"></path><path d="M83,48.32l1.7,20.56a2.06,2.06,0,0,0,.84,1.53l1.37.65a2.18,2.18,0,0,0,1.92-.23l17.88-12.4L83.14,47.33A1.85,1.85,0,0,0,83,48.32Z" style="fill:#263238;opacity:0.4"></path><path d="M86,49.27a2,2,0,0,1,.77-1.64L120.53,24.2c.72-.51,1.38-.2,1.45.68l1.7,20.49a2.27,2.27,0,0,1-.87,1.86l-34,23.6c-.53.37-1,.14-1.07-.51Z" style="fill:#455a64"></path><path d="M88.58,48.59a2.15,2.15,0,0,1,.83-1.76l29.07-20.17c.51-.35,1-.14,1,.48l1.6,19.27a2.17,2.17,0,0,1-.83,1.77L91.2,68.35c-.51.35-1,.13-1-.49Z" style="fill:#37474f"></path><path d="M120.92,47.34a2.06,2.06,0,0,0,.18-.93l-1.6-19.27c0-.62-.51-.83-1-.48l-3.15,2.19,2.17,16.88Z" style="fill:#37474f"></path><path d="M119.6,47.88a2.18,2.18,0,0,0,.83-1.77l-1.6-19.27a1,1,0,0,0-.07-.32,1,1,0,0,0-.28.14L89.41,46.83a2.15,2.15,0,0,0-.83,1.76l1.6,19.27a.94.94,0,0,0,.08.32,1,1,0,0,0,.27-.14Z" style="fill:#263238"></path><path d="M121,34.61l.28,3.41c0,.21.16.28.32.17a.66.66,0,0,0,.25-.56l-.28-3.42c0-.2-.16-.28-.32-.17A.7.7,0,0,0,121,34.61Z" style="fill:#263238"></path><path d="M121.46,40.47c0,.19.16.26.32.15a.66.66,0,0,0,.25-.54c0-.2-.15-.26-.31-.15A.67.67,0,0,0,121.46,40.47Z" style="fill:#263238"></path><path d="M121.58,41.86c0,.19.15.25.31.14a.66.66,0,0,0,.26-.54c0-.19-.16-.26-.32-.15A.68.68,0,0,0,121.58,41.86Z" style="fill:#263238"></path><path d="M120.66,30.78c0,.19.15.26.31.15a.69.69,0,0,0,.26-.55c0-.19-.16-.26-.32-.15A.68.68,0,0,0,120.66,30.78Z" style="fill:#263238"></path><path d="M120.77,32.16c0,.19.16.26.32.15a.64.64,0,0,0,.25-.54c0-.19-.15-.26-.31-.15A.67.67,0,0,0,120.77,32.16Z" style="fill:#263238"></path><path d="M108.24,31.58a.82.82,0,0,1-.73.07.25.25,0,0,1-.15-.19c0-.05,0-.24,0-.3a.27.27,0,0,1,.14-.23l4.61-3.2a.83.83,0,0,1,.72-.07.24.24,0,0,1,.15.18c0,.05,0,.25,0,.31a.28.28,0,0,1-.14.23Z" style="fill:#455a64"></path><path d="M108.21,31.28l4.61-3.2c.2-.14.19-.32,0-.42a.83.83,0,0,0-.72.07l-4.61,3.2c-.2.14-.19.33,0,.42A.8.8,0,0,0,108.21,31.28Z" style="fill:#37474f"></path><path d="M114.41,27.3a.84.84,0,0,1-.72.07.25.25,0,0,1-.16-.19c0-.05,0-.24,0-.3a.26.26,0,0,1,.14-.23l2.17-1.51a.8.8,0,0,1,.72-.07.24.24,0,0,1,.16.18c0,.05,0,.25,0,.31a.27.27,0,0,1-.14.23Z" style="fill:#455a64"></path><path d="M114.38,27l2.18-1.51c.19-.14.19-.32,0-.42a.8.8,0,0,0-.72.07l-2.17,1.51c-.2.14-.19.32,0,.42A.83.83,0,0,0,114.38,27Z" style="fill:#37474f"></path></g><path d="M116.34,48.2A5.52,5.52,0,0,0,114,50.49c-.69,1.35-1.38,3.95-2.78,4.8l5.14,5.65a24.68,24.68,0,0,0,1.55-6.9,16.82,16.82,0,0,1,1.06-4.41C119.57,47.8,117.48,47.63,116.34,48.2Z" style="fill:#c8856a"></path><path d="M100.9,44.79a3.56,3.56,0,0,1-1.11,3c-.71.49-1.36,0-1.45-1.18a3.57,3.57,0,0,1,1.11-3C100.15,43.12,100.8,43.65,100.9,44.79Z" style="fill:#BA68C8"></path><path d="M108.52,39.5a3.57,3.57,0,0,1-1.11,3c-.7.49-1.35,0-1.45-1.18a3.56,3.56,0,0,1,1.11-3C107.77,37.83,108.42,38.36,108.52,39.5Z" style="fill:#BA68C8"></path><path d="M100.79,56.34a7,7,0,0,1-6-2.66A1.12,1.12,0,0,1,95,52.1a1.11,1.11,0,0,1,1.57.13c2,2.3,4.57,2.51,7.34.59,3-2.08,5.73-6.45,7.3-11.67a1.11,1.11,0,0,1,1.39-.75,1.12,1.12,0,0,1,.75,1.39c-1.74,5.78-4.71,10.47-8.17,12.87A9.08,9.08,0,0,1,100.79,56.34Z" style="fill:#BA68C8"></path></g><path id="freepik--Chest--inject-34" d="M215.61,137.42c-8.84-10.38-21.82-17.78-26.88-18.54a8.55,8.55,0,0,1-1.94.43c-4.54.63-10.42,1.91-17.2,2.16,0,0-4.09.89-8.58,2.17a9,9,0,0,1-4.08.24c6,6.32,7.23,17.5,6.16,23.78-1,5.61-3,11.17-9.45,11.19,3.38,9.72,6.45,14.82,6,21.39,14.54,10.62,51.74,10,55.81-2.6,0,0,.19-8.56-.54-17.29C223,153.51,220.52,143.18,215.61,137.42Z" style="fill:#ebebeb"></path><path d="M178,164.62a29.49,29.49,0,0,1,2.87,1.28,14.84,14.84,0,0,0,2.68.83,14.26,14.26,0,0,0,5.25.1,17.1,17.1,0,0,0,10.62-6.47s.1,0,.08.09A14.53,14.53,0,0,1,189.39,169a16.39,16.39,0,0,1-6.47.07c-1.93-.36-5.13-1.12-6.22-2.93C176.26,165.35,177.22,164.4,178,164.62Z" style="fill:#e0e0e0"></path><g id="freepik--chest--inject-34"><path id="freepik--Hair--inject-34" d="M193.1,108.39a5.8,5.8,0,0,0,2.13-2.52c.93-2,.92-4.4,1.54-6.51.53-1.84,1.81-3.43,2.77-5.07a7.9,7.9,0,0,0,1-6.29A6.86,6.86,0,0,0,198,84.32c-1.3-.94-2.71-1.26-3.56-2.77a6.78,6.78,0,0,1-.41-5c.45-1.81,1-3.79-.09-5.5a9,9,0,0,0-3.85-3.51,25.94,25.94,0,0,0-2.94-1.21,12,12,0,0,1-2.76-.94c-.8-.51-1.61-1.08-2.36-1.67a32,32,0,0,0-4.9-3.78,12.43,12.43,0,0,0-4.89-1.3,10.6,10.6,0,0,0-4.47.58A19.92,19.92,0,0,0,162.52,62a7.64,7.64,0,0,1-3.19,1.84c-2.14.31-4.05.56-4.84.72a18,18,0,0,0-5,1.85c-3.16,1.71-4.62,4.68-5.32,8.09-.24,1.19.11,2.74-.42,3.87s-2.06,1.17-3.06,1.5a13.37,13.37,0,0,0-5.11,3.27,6.73,6.73,0,0,0-1.94,5.43c.09,2.09,1.39,3.17,2,5a7.06,7.06,0,0,1,.3,2.66c-.18,1.09-1.31,2-1.66,3a10.38,10.38,0,0,0,.12,6.87,7.36,7.36,0,0,0,5.06,4.81c2.05.62,4.33.49,6.07,1.9,1,.84,1.58,2.14,2.5,3.12a8.13,8.13,0,0,0,3.74,1.84c1.79.41,3.84-.6,5.43-1.28,2.5-1.07,5.44-2,8.13-1.3,1.49.4,2.84,1.18,4.3,1.66a6.58,6.58,0,0,0,3.73-.09c2.68-.69,5-2.73,7.17-4.4a13,13,0,0,1,7.38-2.74A11,11,0,0,0,193.1,108.39Z" style="fill:#263238"></path><g id="freepik--Head--inject-34"><path d="M147.72,96.88c.91-2.16,3.73-3.9,6.06-2.92,2.5,1.06,2.76,2.21,3.88,3.67s4.41.79,4.15-5.81c-.24-6.16-1.07-11.14.74-14.79C165,72.17,171.37,72.6,175,74c1.34-3.11,3.9-4.69,7.18-3.56s6.31,5.26,9.2,16.55c3,11.52,1.29,19.56-1.07,22-1.79,1.82-3.76,3.19-8.11,4.09l.86,3.74h0a3.15,3.15,0,0,0,3.69,2.55c3.31,2.69,3.82,7.2-2.52,9.33-11.29,3.79-20.62-2.17-23.26-5,1.53-.47,2.93-1.81,2.06-5.47h0l-3.15-13a3.77,3.77,0,0,1-2.57,2.3c-2.31.83-4.39,0-6.09-1.4C147.49,103.06,146.61,99.51,147.72,96.88Z" style="fill:#c8856a"></path><path d="M174.05,90a2.22,2.22,0,0,0-2.62-1.42,2.42,2.42,0,0,0-.72.22c-1.16.47-1.71,2.11-3.05,1.62a1.64,1.64,0,0,0,2.56.4c.23-.17.71-.74,1.12-.87l.22-.06C172.77,89.69,174.36,91,174.05,90Z" style="fill:#263238"></path><path d="M183.24,88.2a2.24,2.24,0,0,1,2-2.21,2.7,2.7,0,0,1,.75,0c1.24.07,2.3,1.44,3.41.54a1.64,1.64,0,0,1-2.29,1.21,4.89,4.89,0,0,0-1.34-.45h-.23C184.36,87.49,183.27,89.22,183.24,88.2Z" style="fill:#263238"></path><path d="M187.89,83l-4.44-1.43A2.24,2.24,0,0,1,186.31,80,2.44,2.44,0,0,1,187.89,83Z" style="fill:#263238"></path><path d="M171.45,83.84l-4.27,2.61a2.39,2.39,0,0,1,.74-3.4A2.62,2.62,0,0,1,171.45,83.84Z" style="fill:#263238"></path><path d="M173.86,100.79l6.72.77a3.4,3.4,0,0,1-4.07,2.93A3.18,3.18,0,0,1,173.86,100.79Z" style="fill:#af6152"></path><path d="M178.37,104.31a3.56,3.56,0,0,0-4.12-2.4l-.32.1a3,3,0,0,0,2.58,2.48A3.83,3.83,0,0,0,178.37,104.31Z" style="fill:#ffa8a7"></path><polygon points="176.97 86.1 180.59 97.1 185.98 93.96 176.97 86.1" style="fill:#af6152"></polygon><path d="M182.27,113a30.55,30.55,0,0,1-11.79-.89c-2.84-.77-5.55-3.63-7-6.37a10.66,10.66,0,0,0,6,8c5.1,2.51,13.42,1.91,13.42,1.91Z" style="fill:#af6152"></path><path d="M153.68,104.93a1.56,1.56,0,1,0,1.22-1.84A1.57,1.57,0,0,0,153.68,104.93Z" style="fill:#fafafa"></path></g></g></g></g></g><g id="freepik--musical-notes--inject-34"><g id="freepik--musical-notes--inject-34"><path id="freepik--musical-note--inject-34" d="M266.88,48.63l-6.68,8.59a2.61,2.61,0,0,0-.65-.72,2.85,2.85,0,1,0,.51,4l6-7.7,9.34,4h0l-5.92,7.64a2.93,2.93,0,0,0-.65-.72,2.85,2.85,0,1,0,.51,4h0L279.22,55Z" style="fill:#BA68C8"></path><path id="freepik--musical-note--inject-34" d="M266.88,48.63l-6.68,8.59a2.61,2.61,0,0,0-.65-.72,2.85,2.85,0,1,0,.51,4l6-7.7,9.34,4h0l-5.92,7.64a2.93,2.93,0,0,0-.65-.72,2.85,2.85,0,1,0,.51,4h0L279.22,55Z" style="fill:#fff;opacity:0.5"></path><path id="freepik--musical-note--inject-34" d="M244.25,118.53a5.46,5.46,0,0,1,2.27-.19,11.7,11.7,0,0,1,2.95.84,21.35,21.35,0,0,0,3.87,1.34,5.07,5.07,0,0,0,3.92-.69,5.22,5.22,0,0,1-2.27-.69c-1.67-1-2.79-3-4.23-4.31-2.13-1.9-4.51-2.16-7.53-1.9-.4,2.47-.86,4.94-1.29,7.41q-.51,2.89-1,5.81c0,.18-.53,2.62-.53,2.62a5.1,5.1,0,0,0-2.08-.88,4.22,4.22,0,1,0,3.44,4.87Z" style="fill:#BA68C8"></path><path id="freepik--musical-note--inject-34" d="M307.69,94.46a5.56,5.56,0,0,1,1.63-1.61,11.63,11.63,0,0,1,2.81-1.26A21.08,21.08,0,0,0,316,90.12a5.11,5.11,0,0,0,2.58-3.06,5.39,5.39,0,0,1-2.2.94c-1.9.34-4.11-.54-6-.6-2.87-.08-4.88,1.25-7,3.4,1.29,2.16,2.53,4.37,3.79,6.55l3,5.13c.1.17,1.29,2.37,1.29,2.37a5.15,5.15,0,0,0-2.17.66A4.25,4.25,0,1,0,315,107Z" style="fill:#BA68C8"></path><path id="freepik--musical-note--inject-34" d="M284.22,151.59a7.13,7.13,0,0,1,2.53-1.56,15.32,15.32,0,0,1,3.92-.78,27.62,27.62,0,0,0,5.29-.73,6.65,6.65,0,0,0,4.15-3.13,6.92,6.92,0,0,1-3.05.55c-2.5-.12-5-1.87-7.46-2.51-3.61-.94-6.53.16-9.89,2.25,1,3.11,1.93,6.26,2.89,9.38.76,2.45,1.51,4.91,2.27,7.36.07.23.94,3.36.94,3.36a6.72,6.72,0,0,0-2.93.2,5.51,5.51,0,1,0,6.89,3.63Z" style="fill:#BA68C8"></path><path id="freepik--musical-note--inject-34" d="M284.22,151.59a7.13,7.13,0,0,1,2.53-1.56,15.32,15.32,0,0,1,3.92-.78,27.62,27.62,0,0,0,5.29-.73,6.65,6.65,0,0,0,4.15-3.13,6.92,6.92,0,0,1-3.05.55c-2.5-.12-5-1.87-7.46-2.51-3.61-.94-6.53.16-9.89,2.25,1,3.11,1.93,6.26,2.89,9.38.76,2.45,1.51,4.91,2.27,7.36.07.23.94,3.36.94,3.36a6.72,6.72,0,0,0-2.93.2,5.51,5.51,0,1,0,6.89,3.63Z" style="fill:#fff;opacity:0.30000000000000004"></path></g><g id="freepik--musical-notes--inject-34"><path id="freepik--musical-note--inject-34" d="M59.15,108.39l9.09,9.53a3.25,3.25,0,0,0-1,.64,3.45,3.45,0,1,0,4.88.1L64,110.12l6.44-10.46h0l8.09,8.45a3.44,3.44,0,1,0,3.9.75h0L68.91,94.75Z" style="fill:#BA68C8"></path><path id="freepik--musical-note--inject-34" d="M33.86,158.84a6.25,6.25,0,0,1,1.42-2.1,13.21,13.21,0,0,1,2.78-2,24.83,24.83,0,0,0,3.86-2.43,5.71,5.71,0,0,0,2.14-3.89,5.93,5.93,0,0,1-2.18,1.49c-2,.78-4.59.31-6.69.67-3.14.53-5,2.41-6.91,5.22,1.87,2.07,3.7,4.19,5.54,6.28L38.16,167l1.92,2.29a5.63,5.63,0,0,0-2.22,1.19,4.7,4.7,0,1,0,6.64.4Z" style="fill:#BA68C8"></path><path id="freepik--musical-note--inject-34" d="M33.86,158.84a6.25,6.25,0,0,1,1.42-2.1,13.21,13.21,0,0,1,2.78-2,24.83,24.83,0,0,0,3.86-2.43,5.71,5.71,0,0,0,2.14-3.89,5.93,5.93,0,0,1-2.18,1.49c-2,.78-4.59.31-6.69.67-3.14.53-5,2.41-6.91,5.22,1.87,2.07,3.7,4.19,5.54,6.28L38.16,167l1.92,2.29a5.63,5.63,0,0,0-2.22,1.19,4.7,4.7,0,1,0,6.64.4Z" style="fill:#fff;opacity:0.30000000000000004"></path><path id="freepik--musical-note--inject-34" d="M107,161.49l3.9,14.12a3.79,3.79,0,0,0-1.29.11,3.83,3.83,0,1,0,4.72,2.67l-3.5-12.65,11.81-6.88h0l3.49,12.54a3.82,3.82,0,1,0,3.43,2.78h0l-5.83-20.93Z" style="fill:#BA68C8"></path><path id="freepik--musical-note--inject-34" d="M107,161.49l3.9,14.12a3.79,3.79,0,0,0-1.29.11,3.83,3.83,0,1,0,4.72,2.67l-3.5-12.65,11.81-6.88h0l3.49,12.54a3.82,3.82,0,1,0,3.43,2.78h0l-5.83-20.93Z" style="fill:#fff;opacity:0.5"></path><path id="freepik--musical-note--inject-34" d="M79.7,223.71l8.37,10a3.28,3.28,0,0,0-1,.57,3.41,3.41,0,1,0,4.81.42l-7.5-9,7-9.92h0l7.45,8.86a3.35,3.35,0,0,0-1,.57,3.41,3.41,0,1,0,4.81.42h0L90.2,210.86Z" style="fill:#BA68C8"></path></g></g></svg>